<svg xmlns="http://www.w3.org/2000/svg" style="display:none;">
	<defs>
		<symbol id="icon-email" viewBox="0 0 32 32" fill-rule="evenodd" clip-rule="evenodd" stroke-linejoin="round" stroke-miterlimit="2"><path d="M16.02 30c-2.196 0-4.161-.307-5.895-.92-1.728-.607-3.194-1.496-4.399-2.668-1.205-1.172-2.126-2.595-2.762-4.27-.636-1.675-.957-3.578-.964-5.708.007-2.123.328-4.063.964-5.821.636-1.765 1.567-3.288 2.792-4.57 1.232-1.289 2.742-2.285 4.529-2.988C12.073 2.352 14.118 2 16.422 2c2.075 0 3.947.293 5.614.879 1.674.579 3.103 1.434 4.288 2.564 1.192 1.124 2.102 2.506 2.732 4.146.636 1.641.95 3.523.944 5.646.006 1.447-.141 2.716-.442 3.805-.301 1.082-.747 1.995-1.336 2.74a6.134 6.134 0 0 1-2.169 1.737c-.85.414-1.825.672-2.923.775-.984.097-1.69.049-2.119-.144-.428-.193-.706-.469-.833-.827a7.493 7.493 0 0 1-.302-1.138h-.12c-.154.427-.512.8-1.075 1.117-.562.317-1.225.555-1.988.713a8.209 8.209 0 0 1-2.28.155 6.993 6.993 0 0 1-2.209-.548 6.283 6.283 0 0 1-2.029-1.396c-.609-.62-1.098-1.416-1.466-2.388-.369-.979-.556-2.154-.563-3.526.007-1.378.191-2.55.553-3.515.368-.965.84-1.762 1.416-2.389.582-.627 1.208-1.11 1.878-1.447.676-.338 1.322-.562 1.938-.672a6.982 6.982 0 0 1 2.36-.052c.763.11 1.413.3 1.948.569.536.261.868.544.995.847h.16V8.493h3.817v10.588c.013.414.08.69.201.827a.583.583 0 0 0 .441.207c.315 0 .61-.186.884-.558.281-.379.506-.955.673-1.727.174-.779.258-1.768.251-2.967.007-1.544-.187-2.834-.582-3.867-.389-1.041-.911-1.875-1.567-2.503a6.63 6.63 0 0 0-2.199-1.427 9.79 9.79 0 0 0-2.481-.641c-.85-.11-1.654-.165-2.41-.165-1.734 0-3.227.269-4.48.806-1.245.531-2.269 1.262-3.073 2.192a9.056 9.056 0 0 0-1.787 3.175 12.374 12.374 0 0 0-.583 3.753c.007 1.551.225 2.919.653 4.105.435 1.186 1.068 2.178 1.898 2.978.837.799 1.865 1.403 3.083 1.809 1.226.414 2.628.621 4.208.621.797 0 1.57-.049 2.32-.145.75-.09 1.44-.214 2.069-.372a9.473 9.473 0 0 0 1.597-.517l1.285 3.722c-.421.289-1.014.555-1.777.796-.757.248-1.634.445-2.631.59-.991.151-2.053.227-3.184.227Zm0-10.092c.77 0 1.372-.144 1.808-.434.442-.296.75-.724.924-1.282.18-.565.261-1.248.241-2.047a6.537 6.537 0 0 0-.231-1.696 2.284 2.284 0 0 0-.864-1.282c-.429-.331-1.081-.496-1.958-.496-.73 0-1.349.134-1.858.403a2.656 2.656 0 0 0-1.155 1.179c-.261.517-.395 1.161-.402 1.933.007.634.117 1.237.331 1.81a3.023 3.023 0 0 0 1.085 1.385c.509.352 1.202.527 2.079.527Z" fill-rule="nonzero" fill="currentColor"/></symbol>
		<symbol id="icon-facebook" viewBox="0 0 32 32" fill-rule="evenodd" clip-rule="evenodd" stroke-linejoin="round" stroke-miterlimit="2"><path d="m22.467 17.631.771-5.029h-4.825V9.338c0-1.376.674-2.717 2.835-2.717h2.194V2.34S21.451 2 19.547 2c-3.974 0-6.571 2.409-6.571 6.769v3.833H8.558v5.029h4.418v12.158a17.534 17.534 0 0 0 5.437 0V17.631h4.054Z" fill-rule="nonzero" fill="currentColor"/></symbol>
		<symbol id="icon-twitter" viewBox="0 0 32 32" xmlns="http://www.w3.org/2000/svg" xml:space="preserve" fill-rule="evenodd" clip-rule="evenodd" stroke-linejoin="round" stroke-miterlimit="2"><path d="M10.806 27.378c10.566 0 16.345-8.754 16.345-16.345 0-.249-.005-.496-.017-.743A11.661 11.661 0 0 0 30 7.316a11.472 11.472 0 0 1-3.299.904 5.762 5.762 0 0 0 2.526-3.177 11.515 11.515 0 0 1-3.648 1.394 5.745 5.745 0 0 0-9.789 5.239A16.308 16.308 0 0 1 3.949 5.674a5.723 5.723 0 0 0-.778 2.887 5.739 5.739 0 0 0 2.556 4.782 5.703 5.703 0 0 1-2.602-.719l-.001.074a5.748 5.748 0 0 0 4.609 5.632 5.775 5.775 0 0 1-2.594.098 5.751 5.751 0 0 0 5.366 3.99 11.525 11.525 0 0 1-7.135 2.459c-.463 0-.92-.026-1.37-.079a16.264 16.264 0 0 0 8.806 2.58Z" fill-rule="nonzero" fill="currentColor"/></symbol>
		<symbol id="icon-instagram" viewBox="0 0 32 32" xmlns="http://www.w3.org/2000/svg" xml:space="preserve" fill-rule="evenodd" clip-rule="evenodd" stroke-linejoin="round" stroke-miterlimit="2"><path d="M16 2c-3.802 0-4.279.016-5.772.084-1.49.068-2.508.305-3.399.651A6.857 6.857 0 0 0 4.35 4.35a6.857 6.857 0 0 0-1.615 2.479c-.346.891-.583 1.909-.651 3.399C2.016 11.721 2 12.198 2 16c0 3.802.016 4.279.084 5.772.068 1.49.305 2.508.651 3.399.358.92.836 1.701 1.615 2.479a6.857 6.857 0 0 0 2.479 1.615c.891.346 1.909.583 3.399.651 1.493.068 1.97.084 5.772.084 3.802 0 4.279-.016 5.772-.084 1.49-.068 2.508-.305 3.399-.651a6.857 6.857 0 0 0 2.479-1.615 6.857 6.857 0 0 0 1.615-2.479c.346-.891.583-1.909.651-3.399.068-1.493.084-1.97.084-5.772 0-3.802-.016-4.279-.084-5.772-.068-1.49-.305-2.508-.651-3.399A6.857 6.857 0 0 0 27.65 4.35a6.857 6.857 0 0 0-2.479-1.615c-.891-.346-1.909-.583-3.399-.651C20.279 2.016 19.802 2 16 2Zm0 2.523c3.738 0 4.181.014 5.657.081 1.365.062 2.106.291 2.6.482.653.254 1.12.558 1.61 1.047.489.49.793.957 1.047 1.61.192.494.42 1.235.482 2.6.067 1.476.081 1.919.081 5.657s-.014 4.181-.081 5.657c-.062 1.365-.29 2.106-.482 2.6a4.354 4.354 0 0 1-1.047 1.61c-.49.489-.957.793-1.61 1.047-.494.192-1.235.42-2.6.482-1.476.067-1.919.081-5.657.081s-4.181-.014-5.657-.081c-1.365-.062-2.106-.29-2.6-.482a4.354 4.354 0 0 1-1.61-1.047 4.354 4.354 0 0 1-1.047-1.61c-.192-.494-.42-1.235-.482-2.6-.067-1.476-.081-1.919-.081-5.657s.014-4.181.081-5.657c.062-1.365.29-2.106.482-2.6a4.354 4.354 0 0 1 1.047-1.61c.49-.489.957-.793 1.61-1.047.494-.191 1.235-.42 2.6-.482 1.476-.067 1.919-.081 5.657-.081Z" fill-rule="nonzero" fill="currentColor"/><path d="M16.5 20.833a4.833 4.833 0 1 1 0-9.666 4.833 4.833 0 0 1 0 9.666Zm0-12.279a7.446 7.446 0 1 0 0 14.893 7.446 7.446 0 0 0 0-14.893ZM25.98 8.26a1.74 1.74 0 1 1-3.48 0 1.74 1.74 0 0 1 3.48 0Z" fill-rule="nonzero" fill="currentColor"/></symbol>
		<symbol id="icon-mastodon" viewBox="0 0 32 32" fill-rule="evenodd" clip-rule="evenodd" stroke-linejoin="round" stroke-miterlimit="2"><path d="M29.5 8c-.4-3-3.1-5.5-6.3-6-.6 0-2.6-.3-7.4-.3-4.8 0-5.9.3-6.4.4-3.1.4-6 2.6-6.7 5.7-.3 1.5-.4 3.2-.3 4.8 0 2.2 0 4.5.3 6.7.1 1.5.4 3 .7 4.4.7 2.6 3.4 4.9 6 5.8a16.2 16.2 0 0 0 9.7.2c.7-.3 1.5-.5 2-1h.1v-2.2c-2 .4-3.8.6-5.7.6-3.3 0-4.2-1.5-4.4-2.1a6.6 6.6 0 0 1-.4-1.8c1.9.4 3.8.7 5.6.7h1.4a36 36 0 0 0 5.7-.6h.1c3-.5 5.7-2.3 6-6.7v-2c0-.6.3-4.3 0-6.6ZM25 19h-3v-7.4c0-1.6-.7-2.4-2-2.4-1.5 0-2.3 1-2.3 2.8v4h-3v-4c0-1.8-.8-2.8-2.2-2.8-1.4 0-2 .8-2 2.4V19H7.4v-7.6c0-1.6.4-2.8 1.2-3.8.8-.9 2-1.4 3.3-1.4A4 4 0 0 1 15.4 8l.8 1.3L17 8a4 4 0 0 1 3.5-1.8c1.4 0 2.5.5 3.3 1.4.8 1 1.2 2.2 1.2 3.8V19Z" fill="currentColor"/></symbol>
		<symbol id="icon-rss" viewBox="0 0 32 32" fill-rule="evenodd" clip-rule="evenodd" stroke-linejoin="round" stroke-miterlimit="2"><path d="M10.005 25.997a4.003 4.003 0 1 1-8.005 0 4.003 4.003 0 0 1 8.005 0Zm10.979 2.954c-.522-9.663-8.262-17.412-17.935-17.935a.999.999 0 0 0-1.049 1v3.004a1 1 0 0 0 .93 1.001c6.99.455 12.592 6.044 13.049 13.048A1 1 0 0 0 16.98 30h3.004a1 1 0 0 0 1-1.049Zm9.015.017C29.475 14.355 17.717 2.528 3.031 2.001a.998.998 0 0 0-1.031 1v3.004c0 .539.427.978.966 1 11.948.49 21.539 10.082 22.029 22.029.022.539.461.966 1 .966h3.004a.998.998 0 0 0 1-1.032Z" fill-rule="nonzero" fill="currentColor"/></symbol>
	</defs>
</svg>
